<svg width="25" height="24" viewBox="0 0 25 24" fill="none" xmlns="http://www.w3.org/2000/svg">
<g clip-path="url(#clip0_17152_6308)">
<path d="M17.353 20.7014H6.3125" stroke="#5B5B5B" stroke-miterlimit="10"/>
<path d="M17.3555 20.7015V12.4581C17.3555 11.9525 17.7809 11.542 18.3038 11.542H20.088C20.3578 11.542 20.6146 11.6521 20.7945 11.8461C20.9744 12.0402 21.0606 12.2995 21.0307 12.5589L20.2941 19.8861C20.2398 20.3507 19.835 20.7015 19.3514 20.7015H17.3555V20.7015Z" stroke="#5B5B5B" stroke-miterlimit="10"/>
<path d="M6.31385 20.7015V12.4581C6.31385 11.9525 5.88842 11.542 5.36554 11.542H3.58136C3.31148 11.542 3.05472 11.6521 2.87481 11.8461C2.69489 12.0402 2.60868 12.2995 2.63867 12.5589L3.3752 19.8861C3.42955 20.3507 3.83437 20.7015 4.31789 20.7015H6.31197H6.31385Z" stroke="#5B5B5B" stroke-miterlimit="10"/>
<path d="M17.353 17.496H6.3125" stroke="#5B5B5B" stroke-miterlimit="10"/>
<path d="M17.3549 16.5798C17.3549 15.5685 16.5303 14.7476 15.5145 14.7476H8.1529C7.13712 14.7476 6.3125 15.5685 6.3125 16.5798" stroke="#5B5B5B" stroke-miterlimit="10"/>
<path d="M18.5765 12L19.3118 6.42221C19.3933 5.81309 19.2263 5.19582 18.8556 4.73135C18.4869 4.26687 17.9492 4 17.385 4H6.27825C5.71405 4 5.17837 4.26687 4.80767 4.73135C4.43901 5.19582 4.27199 5.81309 4.35143 6.42221L5.08671 12" stroke="#5B5B5B" stroke-miterlimit="10"/>
</g>
<defs>
<clipPath id="clip0_17152_6308">
<rect width="19" height="18" fill="white" transform="translate(2.33203 3)"/>
</clipPath>
</defs>
</svg>
